<svg id="Layer_1" data-name="Layer 1" xmlns="http://www.w3.org/2000/svg" viewBox="0 0 1670.18 1584"><defs><style>.cls-1{fill:#d0d2d3;}.cls-2{fill:#f7323f;}.cls-3{fill:#fff;}.cls-4{fill:#fee300;}.cls-5{fill:#72d54a;}.cls-6{fill:#00a1df;}.cls-7{fill:#ef4136;}</style></defs><title>BrandGuidelines_Piper_102317</title><path class="cls-1" d="M1122,579.4c39.6-66,98.91-124,172.31-169.79V362.74C1198,418.13,1121.79,492.9,1075.69,579.4Z"/><path class="cls-1" d="M1083.83,879.6h-42.24c34.48,122.23,126.26,228.37,252.74,301.09v-46.87C1191,1069.42,1115.61,980.74,1083.83,879.6Z"/><rect class="cls-2" x="104.37" y="592.92" width="267.74" height="267.74"/><path class="cls-3" d="M229.66,798.86H200.23V667.57h30.43c14.84,0,27.11,3.64,36.47,10.83C277,686,282.07,696,282.07,708.26s-5.24,22.57-15.56,30.72c-8.66,6.84-21,10.64-36.85,11.33Zm-15.9-13.52h2.38V736.83l8.14.08c15.29,0,26.68-2.87,33.85-8.53,7-5.54,10.42-12.11,10.42-20.11s-3.16-14.15-9.65-19.13c-6.95-5.34-16.45-8-28.24-8h-16.9Zm2.38-48.9V681.62h6.76c17,0,27.7,2.47,33.53,7.77s8.82,11.8,8.82,19.24c0,9.73-4.21,17.25-12.17,21.74-6.89,3.91-16.74,5.87-30.11,6Zm13.52-41.13v27.27c9.08-.68,14.07-2.46,16.75-4,3.67-2.07,5.31-5.15,5.31-10,0-3.57-1.4-6.5-4.4-9.24C246.12,698.29,242.11,695.94,229.66,695.31Z"/><path class="cls-3" d="M207,674.33h23.66q20.06,0,32.35,9.43t12.29,24.5q0,15.16-13,25.42t-39.42,10V792.1H207Zm15.9,14.05v41.23q18.11-.19,26.85-5.13t8.73-15.85q0-8.23-6.61-14.24T222.89,688.38Z"/><rect class="cls-4" x="400.5" y="592.92" width="267.74" height="267.74"/><path class="cls-3" d="M548.3,798.86H518.88V667.57H548.3Zm-15.9-13.52h2.38V681.09H532.4Z"/><path class="cls-3" d="M525.64,674.33h15.9V792.1h-15.9Z"/><rect class="cls-5" x="696.64" y="592.92" width="267.74" height="267.74"/><path class="cls-3" d="M821.93,798.86H792.51V667.57h30.43c14.84,0,27.11,3.64,36.47,10.83,9.91,7.59,14.94,17.64,14.94,29.86s-5.23,22.57-15.55,30.72c-8.66,6.84-21,10.64-36.86,11.33ZM806,785.34h2.38V736.83l8.14.08c15.29,0,26.68-2.87,33.85-8.53,7-5.54,10.41-12.11,10.41-20.11s-3.16-14.16-9.65-19.13c-6.95-5.34-16.45-8-28.24-8H806Zm2.38-48.9V681.62h6.76c17,0,27.69,2.47,33.52,7.77s8.82,11.81,8.82,19.24c0,9.73-4.21,17.25-12.17,21.74-6.89,3.91-16.74,5.87-30.11,6Zm13.52-41.13v27.27c9.08-.68,14.07-2.46,16.75-4,3.67-2.07,5.31-5.14,5.31-10,0-3.57-1.4-6.5-4.4-9.24C838.39,698.3,834.38,695.94,821.93,695.31Z"/><path class="cls-3" d="M799.27,674.33h23.66q20.06,0,32.35,9.43t12.29,24.5q0,15.16-13,25.42t-39.42,10V792.1h-15.9Zm15.9,14.05v41.23q18.11-.19,26.85-5.13t8.74-15.85q0-8.23-6.61-14.24T815.17,688.38Z"/><rect class="cls-6" x="992.78" y="592.92" width="267.74" height="267.74"/><path class="cls-3" d="M1168.21,798.86h-78.78V667.57h78.78v29.61h-49.36v15.88h49.36v29.41h-49.36v27h49.36Zm-65.26-13.52h51.74V783h-49.36v-54h49.36v-2.37h-49.36V683.66h49.36v-2.56h-51.74Z"/><path class="cls-3" d="M1096.19,674.33h65.26v16.08h-49.36v29.4h49.36v15.9h-49.36V776.2h49.36v15.9h-65.26Z"/><rect class="cls-7" x="1288.91" y="592.92" width="267.74" height="267.74"/><path class="cls-3" d="M1473.82,798.86H1439l-25.92-38.43v38.43h-29.61V667.57h32.27c14.2,0,26,3.68,35.21,10.93,9.64,7.63,14.53,17.57,14.53,29.56a37.89,37.89,0,0,1-9.37,25.28c-4.46,5.22-10.65,9.31-18.49,12.22Zm-27.63-13.52h2.1l-32.62-48.06,9.69-2.18c9.43-2.12,16.32-5.67,20.48-10.54a24.37,24.37,0,0,0,6.13-16.49c0-7.75-3.08-14-9.4-19-6.81-5.39-15.59-8-26.82-8H1397V785.34h2.56V736.9h14Zm-37.52-48.94-9.11-.16V681.81h6.76c9.55,0,16.73.62,21.95,1.9a27.73,27.73,0,0,1,14.57,8.58c3.88,4.44,5.84,10.06,5.84,16.7C1448.68,721.5,1441.75,736.4,1408.68,736.4Zm4.41-40.94v27.31c22.07-1.07,22.07-10.2,22.07-13.78,0-3.32-.82-5.88-2.5-7.8a14.27,14.27,0,0,0-7.63-4.35A64,64,0,0,0,1413.09,695.46Z"/><path class="cls-3" d="M1390.24,674.33h25.51q19,0,31,9.48t12,24.25a31.19,31.19,0,0,1-7.74,20.89q-7.74,9.05-24.16,12.75l34.21,50.4H1442.6l-32.67-48.44h-3.6V792.1h-16.08Zm16.08,14.24v41q35.6.74,35.59-20.61,0-7.49-4.16-12.25a20.93,20.93,0,0,0-11.09-6.47Q1419.73,688.56,1406.33,688.57Z"/><path class="cls-1" d="M889.43,161.84s5.85-3.38,9.23,2.48l57.46,99.5s3.38,5.86-2.48,9.24l-21.18,12.23s-5.85,3.38-9.23-2.48l-57.46-99.5s-3.38-5.86,2.48-9.24Z"/><polygon class="cls-1" points="989.93 121.02 1038.17 204.58 956.36 251.81 908.11 168.26 989.93 121.02"/><rect class="cls-3" x="956.08" y="202.2" width="11.29" height="31.2" transform="translate(14.99 493.57) rotate(-29)"/><rect class="cls-3" x="933.19" y="163.03" width="11.3" height="31.2" transform="translate(31.11 477.56) rotate(-29)"/><rect class="cls-1" x="331.84" y="323.97" width="96.48" height="94.47" transform="translate(-146.43 442.16) rotate(-52)"/><rect class="cls-1" x="332.63" y="319.96" width="79.7" height="94.48" transform="matrix(0.62, -0.79, 0.79, 0.62, -146.19, 434.66)"/><rect class="cls-1" x="325.52" y="1101.64" width="94.48" height="96.49" transform="translate(-579.27 405.02) rotate(-34)"/><polygon class="cls-1" points="348.01 1212.81 303.45 1146.73 381.77 1093.9 426.34 1159.98 348.01 1212.81"/><rect class="cls-1" x="1272.66" y="316.89" width="94.48" height="96.49" transform="translate(21.46 800.45) rotate(-34)"/><rect class="cls-1" x="1280.52" y="321.81" width="94.48" height="79.71" transform="translate(24.74 804.26) rotate(-34)"/><polygon class="cls-1" points="1341.36 1230.04 1377.5 1140.59 1289.9 1105.19 1253.75 1194.65 1341.36 1230.04"/><polygon class="cls-1" points="1352.91 1224.02 1382.77 1150.11 1295.17 1114.73 1265.32 1188.63 1352.91 1224.02"/><path class="cls-1" d="M764.07,1369.62s-4.86,4.7-9.56-.16L674.7,1286.8s-4.7-4.86.17-9.56l17.59-17s4.87-4.7,9.56.16l79.81,82.65s4.7,4.86-.17,9.56Z"/><rect class="cls-1" x="629.66" y="1317.78" width="94.48" height="96.48" transform="translate(-758.96 853.65) rotate(-44)"/><rect class="cls-3" x="674.74" y="1317.21" width="11.29" height="31.2" transform="translate(-726.17 822.02) rotate(-43)"/><rect class="cls-3" x="706.43" y="1349.69" width="11.29" height="31.2" transform="translate(-739.81 852.36) rotate(-43)"/><path class="cls-1" d="M777.31,579.4c-16.82-54.27-18.63-105.59-5.06-153.39,35.18-124,162.89-185.7,164.17-186.31l-23-48.95c-6.13,2.88-150.81,72.22-193,220-15.31,53.54-15,109.94.56,168.67Z"/><path class="cls-1" d="M943,879.6h-55.9a275.1,275.1,0,0,1,10.12,63.93c4.22,109.86-56.21,224.36-179.59,340.31l37,39.42c135.3-127.15,201.44-255.6,196.6-381.8A330.5,330.5,0,0,0,943,879.6Z"/><path class="cls-1" d="M550.2,579.4h45.49C553.51,493.9,482.21,419.22,391,362.49v47.9C459.51,456.89,514.25,514.51,550.2,579.4Z"/><path class="cls-1" d="M577.09,879.6c-31.53,89.32-97.25,168.33-186.06,228.64v47.9C502.85,1086.57,584.78,990,619.75,879.6Z"/></svg>