<?xml version="1.0" encoding="utf-8"?>
<!-- Generator: Adobe Illustrator 23.1.1, SVG Export Plug-In . SVG Version: 6.00 Build 0)  -->
<svg version="1.1" id="Layer_1" xmlns="http://www.w3.org/2000/svg" xmlns:xlink="http://www.w3.org/1999/xlink" x="0px" y="0px"
	 viewBox="0 0 384.73 71.52" style="enable-background:new 0 0 384.73 71.52;" xml:space="preserve">
<style type="text/css">
	.st0{fill:#FFFFFF;}
	.st1{fill:#005CB9;}
</style>
<g>
	<rect x="13.95" y="10.41" class="st0" width="40.31" height="52.77"/>
	<rect x="93.7" y="10.41" class="st0" width="40.31" height="52.77"/>
	<rect x="169.17" y="10.41" class="st0" width="40.31" height="52.77"/>
	<rect x="247.79" y="10.59" class="st0" width="40.31" height="52.77"/>
	<rect x="327.64" y="10.59" class="st0" width="40.31" height="52.77"/>
	<g>
		<path class="st1" d="M234.84,0l0,71.52h71.52V0H234.84z M281.14,26.16H268v4.22h13.13v7.95H268v7.03h13.13v7.95h-21.08v-7.95
			v-7.03v-7.95l0,0v-4.22l0,0v-7.95h21.08V26.16z"/>
		<g>
			<path class="st1" d="M-0.28,0v71.52h71.52V0H-0.28z M32.49,40.38v12.93h-7.95v-35.1h7.95c8.67,0,13.94,4.96,13.94,11.08
				C46.43,35.42,40.6,40.38,32.49,40.38z"/>
			<path class="st1" d="M32.59,25.83v7.02c4.39-0.09,5.8-1.5,5.79-3.51C38.38,27.84,37.52,25.76,32.59,25.83z"/>
		</g>
		<path class="st1" d="M78.09,0v71.52h71.52V0H78.09z M117.83,53.31h-7.95v-35.1h7.95V53.31z"/>
		<g>
			<path class="st1" d="M189.33,25.83v7.02c4.39-0.09,5.8-1.5,5.79-3.51C195.12,27.84,194.26,25.76,189.33,25.83z"/>
			<path class="st1" d="M156.47,0v71.52l71.52,0l0-71.52H156.47z M189.23,40.38v12.93h-7.95l0-35.1h7.95
				c8.67,0,13.94,4.96,13.94,11.08C203.17,35.42,197.34,40.38,189.23,40.38z"/>
		</g>
		<g>
			<path class="st1" d="M344.9,25.83v7.02c4.39-0.09,5.8-1.5,5.79-3.51C350.69,27.84,349.84,25.76,344.9,25.83z"/>
			<path class="st1" d="M313.21,0v71.52h71.52l0-71.52H313.21z M351.53,53.31l-6.73-10.2v10.2h-7.95v-35.1h7.95
				c8.67,0,13.94,4.96,13.94,11.08c0,4.26-2.82,7.95-7.27,9.81l9.61,14.2H351.53z"/>
		</g>
	</g>
</g>
</svg>
