<svg id="Layer_1" data-name="Layer 1" xmlns="http://www.w3.org/2000/svg" viewBox="0 0 1500.72 279.6"><defs><style>.cls-1{fill:#00a1df;}.cls-2{fill:#f9f9fa;}.cls-3{fill:#f7323f;}.cls-4{fill:#fee300;}.cls-5{fill:#72d54a;}</style></defs><title>BrandGuidelines_Piper_2018_01_22</title><rect class="cls-1" x="916.85" y="1" width="278.59" height="278.59"/><polygon class="cls-2" points="1097.2 102.9 1097.2 71.94 1015.09 71.94 1015.09 102.9 1015.09 102.9 1015.09 119.35 1015.09 119.35 1015.09 150.31 1015.09 150.31 1015.09 177.69 1015.09 177.69 1015.09 208.65 1097.2 208.65 1097.2 177.69 1046.05 177.69 1046.05 150.31 1097.2 150.31 1097.2 119.35 1046.05 119.35 1046.05 102.9 1097.2 102.9"/><rect class="cls-3" x="1" y="1" width="278.59" height="278.59"/><path class="cls-2" d="M128.63,71.94h-31V208.65h31V158.29c31.61,0,54.3-19.33,54.3-43.17S162.38,71.94,128.63,71.94Zm.39,57V101.63c19.23-.28,22.55,7.84,22.56,13.66C151.59,123.11,146.11,128.62,129,129Z"/><rect class="cls-4" x="306.28" y="1" width="278.59" height="278.59"/><rect class="cls-2" x="377.22" y="124.82" width="136.71" height="30.96" transform="translate(585.88 -305.28) rotate(90)"/><rect class="cls-5" x="611.56" y="1" width="278.59" height="278.59"/><path class="cls-2" d="M739.19,71.94h-31V208.65h31V158.29c31.61,0,54.3-19.33,54.3-43.17S772.95,71.94,739.19,71.94Zm.39,57V101.63c19.23-.28,22.55,7.84,22.56,13.66C762.16,123.11,756.67,128.62,739.58,129Z"/><rect class="cls-3" x="1222.13" y="1" width="278.59" height="278.59"/><path class="cls-2" d="M1408.61,208.65l-37.43-55.33c17.33-7.23,28.32-21.62,28.32-38.21,0-23.84-20.55-43.17-54.3-43.17h-31V208.65h31V168.93l26.23,39.73Zm-63-107c19.23-.28,22.55,7.84,22.56,13.66,0,7.81-5.47,13.32-22.56,13.66Z"/></svg>